<svg xmlns="http://www.w3.org/2000/svg" viewBox="0 0 1200 630" width="1200" height="630">
  <defs>
    <radialGradient id="ogV" cx="50%" cy="50%" r="50%"><stop offset="0%" stop-color="#9D5FFF" stop-opacity="0.55"/><stop offset="100%" stop-color="#9D5FFF" stop-opacity="0"/></radialGradient>
    <radialGradient id="ogT" cx="50%" cy="50%" r="50%"><stop offset="0%" stop-color="#00F5D4" stop-opacity="0.45"/><stop offset="100%" stop-color="#00F5D4" stop-opacity="0"/></radialGradient>
    <radialGradient id="ogG" cx="50%" cy="50%" r="50%"><stop offset="0%" stop-color="#FFD60A" stop-opacity="0.4"/><stop offset="100%" stop-color="#FFD60A" stop-opacity="0"/></radialGradient>
    <linearGradient id="ogText" x1="0%" y1="0%" x2="100%" y2="0%">
      <stop offset="0%" stop-color="#00F5D4"/>
      <stop offset="33%" stop-color="#9D5FFF"/>
      <stop offset="66%" stop-color="#FFD60A"/>
      <stop offset="100%" stop-color="#FF5599"/>
    </linearGradient>
  </defs>
  <rect width="1200" height="630" fill="#0F0A24"/>
  <ellipse cx="950" cy="200" rx="380" ry="380" fill="url(#ogV)"/>
  <ellipse cx="1050" cy="450" rx="320" ry="320" fill="url(#ogT)"/>
  <ellipse cx="800" cy="380" rx="280" ry="280" fill="url(#ogG)"/>

  <g opacity="0.5">
    <circle cx="100" cy="100" r="1.2" fill="#FFFFFF"/>
    <circle cx="220" cy="160" r="1.4" fill="#FFD60A"/>
    <circle cx="380" cy="120" r="1" fill="#FFFFFF"/>
    <circle cx="540" cy="180" r="0.8" fill="#FFFFFF"/>
    <circle cx="160" cy="280" r="1.2" fill="#FFFFFF"/>
    <circle cx="320" cy="340" r="1.4" fill="#00F5D4"/>
  </g>

  <line x1="0" y1="500" x2="1200" y2="500" stroke="rgba(255,255,255,0.15)" stroke-width="1" stroke-dasharray="4 8"/>
  <path d="M 100 500 Q 250 380 400 500" stroke="#FFD60A" stroke-width="2" fill="none" stroke-linecap="round" opacity="0.85"/>
  <circle cx="100" cy="500" r="5" fill="#FFD60A"/>
  <circle cx="400" cy="500" r="5" fill="#00F5D4"/>

  <g transform="translate(950, 200)">
    <circle cx="0" cy="0" r="180" fill="none" stroke="#FFD60A" stroke-width="0.6" opacity="0.5" stroke-dasharray="3 8"/>
    <circle cx="180" cy="0" r="6" fill="#FFD60A"/>
  </g>
  <circle cx="950" cy="200" r="10" fill="#FFFFFF"/>
  <circle cx="950" cy="200" r="22" fill="none" stroke="#FFFFFF" stroke-width="0.8" opacity="0.6"/>

  <g transform="translate(80, 80)">
    <svg width="48" height="48" viewBox="0 0 28 28" x="0" y="0">
      <circle cx="14" cy="14" r="4" fill="#FFFFFF"/>
      <circle cx="14" cy="14" r="9" fill="none" stroke="#FFFFFF" stroke-width="0.8" opacity="0.7"/>
      <circle cx="14" cy="14" r="13" fill="none" stroke="#FFD60A" stroke-width="0.7" opacity="0.7"/>
    </svg>
    <text x="62" y="22" font-family="Space Grotesk, sans-serif" font-size="20" font-weight="500" fill="#FFFFFF" letter-spacing="-0.01em">Interstellar I.S.</text>
    <text x="62" y="42" font-family="JetBrains Mono, monospace" font-size="11" fill="rgba(255,255,255,0.6)" letter-spacing="0.18em">INFRASTRUCTURE SOLUTIONS</text>
  </g>

  <g transform="translate(80, 240)">
    <rect x="0" y="0" rx="100" ry="100" width="320" height="36" fill="rgba(255,214,10,0.1)" stroke="rgba(255,214,10,0.45)" stroke-width="1"/>
    <circle cx="20" cy="18" r="4" fill="#FFD60A"/>
    <text x="36" y="23" font-family="Inter, sans-serif" font-size="11" font-weight="500" fill="#FFD60A" letter-spacing="0.18em" text-transform="uppercase">VETERAN-OWNED ▪ 503 SUPPLIERS</text>
  </g>

  <text x="80" y="370" font-family="Space Grotesk, sans-serif" font-size="80" font-weight="500" fill="#FFFFFF" letter-spacing="-0.04em">No line of sight.</text>
  <text x="80" y="460" font-family="Space Grotesk, sans-serif" font-size="80" font-weight="500" fill="url(#ogText)" letter-spacing="-0.04em">No limit.</text>

  <text x="80" y="540" font-family="Inter, sans-serif" font-size="22" fill="#D8D5E8">Independent infrastructure intelligence.</text>

  <text x="80" y="585" font-family="JetBrains Mono, monospace" font-size="12" fill="rgba(255,214,10,0.7)" letter-spacing="0.2em">▸ ISINTERSTELLAR.COM</text>
</svg>
